<?xml version="1.0" encoding="utf-8"?>
<!-- Generator: Adobe Illustrator 16.0.0, SVG Export Plug-In . SVG Version: 6.00 Build 0)  -->
<!DOCTYPE svg PUBLIC "-//W3C//DTD SVG 1.1//EN" "http://www.w3.org/Graphics/SVG/1.1/DTD/svg11.dtd">
<svg version="1.1" id="Layer_1" xmlns="http://www.w3.org/2000/svg" xmlns:xlink="http://www.w3.org/1999/xlink" x="0px" y="0px"
	 width="1024px" height="58.276px" viewBox="0 0 1024 58.276" enable-background="new 0 0 1024 58.276" xml:space="preserve">
<g>
	<path fill="#FFFFFF" d="M41.626,45.789l4.163-4.163V0h16.65v47.87L52.033,58.276H10.407L0,47.87V0h16.65v41.626l4.163,4.163H41.626
		z"/>
	<path fill="#FFFFFF" d="M70.764,58.276V45.789l29.971-20.813H70.764V12.488h54.114v12.488L94.907,45.789h29.971v12.488H70.764z"/>
	<path fill="#FFFFFF" d="M133.203,47.87V12.488h16.65v29.138l4.163,4.163h12.488l4.163-4.163V12.488h16.65V47.87l-10.406,10.406
		H143.61L133.203,47.87z"/>
	<path fill="#FFFFFF" d="M260.163,12.488l10.406,10.407v35.382h-16.65V29.138l-4.163-4.163h-8.325v33.301h-16.65V24.976h-8.325
		l-4.163,4.163v29.138h-16.65V22.895l10.407-10.407H260.163z"/>
	<path fill="#FFFFFF" d="M333.008,22.895v8.325l-10.407,10.406h-22.895V29.138h12.488l2.081-2.081l-2.081-2.082h-12.488
		l-4.162,4.163v12.488l4.162,4.163h29.139l-4.163,12.488h-35.382L278.894,47.87V22.895l10.407-10.407h33.301L333.008,22.895z"/>
	<path fill="#FFFFFF" d="M437.073,0v12.488h-22.895v45.789h-16.65V12.488h-22.894V0H437.073z"/>
	<path fill="#FFFFFF" d="M499.512,22.895v8.325l-10.407,10.406h-22.894V29.138h12.488l2.081-2.081l-2.081-2.082h-12.488
		l-4.163,4.163v12.488l4.163,4.163h29.138l-4.163,12.488h-35.382L445.398,47.87V22.895l10.406-10.407h33.301L499.512,22.895z"/>
	<path fill="#FFFFFF" d="M524.487,29.138v29.138h-16.65V22.895l10.407-10.407h33.301l10.406,10.407v35.382h-16.65V29.138
		l-4.163-4.163H528.65L524.487,29.138z"/>
	<path fill="#FFFFFF" d="M586.927,29.138v29.138h-16.65V22.895l10.406-10.407h33.301l10.407,10.407v35.382h-16.65V29.138
		l-4.162-4.163H591.09L586.927,29.138z"/>
	<path fill="#FFFFFF" d="M686.829,22.895V47.87l-10.406,10.406h-33.301L632.715,47.87V22.895l10.407-10.407h33.301L686.829,22.895z
		 M649.366,29.138v12.488l4.162,4.163h12.488l4.162-4.163V29.138l-4.162-4.163h-12.488L649.366,29.138z"/>
	<path fill="#FFFFFF" d="M695.154,47.87V12.488h16.65v29.138l4.163,4.163h12.487l4.163-4.163V12.488h16.65V47.87l-10.407,10.406
		h-33.301L695.154,47.87z"/>
	<path fill="#FFFFFF" d="M795.057,41.626V29.138l-4.162-4.163h-12.488V12.488h22.895l10.406,10.407V47.87l-10.406,10.406H768
		L757.594,47.87V0h16.65v41.626l4.162,4.163h12.488L795.057,41.626z"/>
	<path fill="#FFFFFF" d="M874.146,22.895V47.87L863.74,58.276h-33.302L820.032,47.87V22.895l10.406-10.407h33.302L874.146,22.895z
		 M836.683,29.138v12.488l4.163,4.163h12.487l4.163-4.163V29.138l-4.163-4.163h-12.487L836.683,29.138z"/>
	<path fill="#FFFFFF" d="M926.179,29.138l10.406,10.407v8.325l-10.406,10.406h-39.545l-4.162-12.488h33.301l2.081-2.081
		l-2.081-2.082h-22.895L882.472,31.22v-8.325l10.406-10.407h39.545l4.162,12.488h-33.301l-2.081,2.082l2.081,2.081H926.179z"/>
	<path fill="#FFFFFF" d="M961.561,0v12.488h27.058l10.406,10.407v35.382h-16.65V29.138l-4.163-4.163h-16.65v33.301h-16.65V0H961.561
		z"/>
	<path fill="#FFFFFF" d="M1024,0v12.488h-16.65V0H1024z M1024,20.813v37.463h-16.65V20.813H1024z"/>
</g>
</svg>
