<?xml version="1.0" encoding="utf-8"?>
<!-- Generator: Adobe Illustrator 16.0.0, SVG Export Plug-In . SVG Version: 6.00 Build 0)  -->
<!DOCTYPE svg PUBLIC "-//W3C//DTD SVG 1.1//EN" "http://www.w3.org/Graphics/SVG/1.1/DTD/svg11.dtd">
<svg version="1.1" id="Layer_1" xmlns="http://www.w3.org/2000/svg" xmlns:xlink="http://www.w3.org/1999/xlink" x="0px" y="0px"
	 width="416.444px" height="51.855px" viewBox="0 0 416.444 51.855" enable-background="new 0 0 416.444 51.855"
	 xml:space="preserve">
<g>
	<path fill="#FFFFFF" d="M34.12,11.988c0,0.469-0.258,0.703-0.773,0.703c-0.891,0-4.418-0.176-10.582-0.527
		c-0.141,5.93-0.211,10.067-0.211,12.41c0,2.766,0.111,6.926,0.334,12.48c0.223,5.555,0.334,9.715,0.334,12.48
		c0,0.445-0.105,0.727-0.316,0.844c-0.07,0.047-0.399,0.105-0.984,0.176c-1.406,0.188-3.469,0.281-6.188,0.281
		c-3.023,0-5.145-0.094-6.363-0.281c-0.656-0.117-0.984-0.48-0.984-1.09c0-2.765,0.117-6.914,0.352-12.445
		c0.234-5.531,0.352-9.68,0.352-12.445c0-1.828-0.094-5.906-0.281-12.234c-4.688,0.469-8.426,0.703-11.215,0.703
		c-0.375,0-0.563-0.117-0.563-0.352c0-0.304,0.164-1.207,0.492-2.707c0.375-1.64,0.585-2.637,0.633-2.988
		c0.07-1.102,0.152-2.203,0.246-3.305c0.164-1.758,0.445-2.637,0.844-2.637c0.047,0,0.211,0.012,0.492,0.035
		c3.797,0.492,9.41,0.738,16.84,0.738c2.109,0,6-0.223,11.672-0.668c3.046-0.234,4.582-0.352,4.605-0.352
		c0.469,0,0.738,0.03,0.809,0.088c0.07,0.059,0.117,0.287,0.141,0.686c0,0.633-0.023,1.512-0.07,2.637
		c-0.047,1.243-0.07,2.122-0.07,2.637c0,0.586,0.076,1.447,0.229,2.584C34.043,10.577,34.12,11.426,34.12,11.988z"/>
	<path fill="#FFFFFF" d="M72.721,25.066l-0.07,24.258c0,0.821-0.329,1.277-0.984,1.371c-0.75,0.093-2.461,0.141-5.133,0.141
		c-2.579,0-4.372-0.094-5.379-0.281c-0.773-0.141-1.16-0.645-1.16-1.512c0-2.016,0.035-5.05,0.105-9.105
		c0.07-4.055,0.105-7.089,0.105-9.105c0-2.742-1.395-4.113-4.184-4.113c-0.938,0-2.039,0.375-3.305,1.125
		c-1.383,0.821-2.074,1.676-2.074,2.566v8.684c0,1.125,0.023,2.818,0.07,5.08c0.047,2.262,0.07,3.955,0.07,5.08
		c0,0.867-0.364,1.348-1.09,1.441c-0.727,0.093-2.766,0.141-6.117,0.141c-1.922,0-3.305-0.094-4.148-0.281s-1.266-0.598-1.266-1.23
		c0-1.851,0.012-4.635,0.035-8.35c0.023-3.714,0.035-6.498,0.035-8.35c0-7.664-0.083-14.004-0.246-19.02
		c-0.07-1.758-0.129-3.516-0.176-5.273c-0.118-2.039-0.329-3.785-0.633-5.238c-0.07-0.304-0.105-0.527-0.105-0.668
		c0-0.352,0.176-0.585,0.527-0.703c0.726-0.211,1.793-0.339,3.199-0.387c1.875-0.07,2.965-0.128,3.27-0.176l6.363-0.738
		c0.375,0,0.563,0.246,0.563,0.738c0,0.75-0.047,1.77-0.141,3.059c-0.094,1.5-0.141,2.52-0.141,3.059
		c-0.141,5.297-0.211,9.48-0.211,12.551c0,0.469,0.117,0.703,0.352,0.703c0.047,0,0.645-0.41,1.793-1.23
		c1.359-0.961,2.66-1.723,3.902-2.285c1.851-0.82,3.644-1.23,5.379-1.23c3,0,5.507,0.786,7.523,2.355
		C71.631,19.828,72.721,22.137,72.721,25.066z"/>
	<path fill="#FFFFFF" d="M110.655,31.465c0,2.368-0.762,3.715-2.285,4.043c-0.258,0.047-2.684,0.305-7.277,0.773
		c-2.766,0.305-6.891,0.668-12.375,1.09c0.328,1.524,1.324,2.684,2.988,3.48c1.359,0.656,2.906,0.984,4.641,0.984
		c2.086,0,4.184-0.563,6.293-1.688c0.891-0.563,1.781-1.125,2.672-1.688c0.492,0.234,1.318,1.43,2.479,3.586
		c1.16,2.157,1.74,3.528,1.74,4.113c0,0.164-0.176,0.434-0.527,0.809c-2.86,3.071-7.301,4.605-13.324,4.605
		c-5.578,0-10.078-1.629-13.5-4.887c-3.516-3.305-5.273-7.722-5.273-13.254c0-5.391,1.57-9.809,4.711-13.254
		c3.234-3.563,7.523-5.344,12.867-5.344c4.5,0,8.32,1.641,11.461,4.922C109.084,23.04,110.655,26.942,110.655,31.465z M98.35,29.32
		c0-1.453-0.516-2.73-1.547-3.832c-1.032-1.102-2.262-1.652-3.691-1.652c-1.477,0-2.695,0.621-3.656,1.863
		c-0.891,1.148-1.336,2.496-1.336,4.043c0,0.633,0.328,0.949,0.984,0.949c1.734,0,4.43-0.269,8.086-0.809
		C97.963,29.766,98.35,29.579,98.35,29.32z"/>
	<path fill="#FFFFFF" d="M170.631,33.363c0,4.922-1.406,9.035-4.219,12.34c-3,3.516-6.914,5.273-11.742,5.273
		c-3.516,0-6.352-1.007-8.508-3.023c-0.164-0.141-0.305-0.211-0.422-0.211c-0.234,0-0.452,0.434-0.65,1.301
		c-0.199,0.867-0.439,1.348-0.721,1.441c-0.399,0.117-3.739,0.176-10.02,0.176c-1.477,0-2.215-0.269-2.215-0.809
		c0-0.07,0.023-0.246,0.07-0.527c0.469-3.727,0.703-10.828,0.703-21.305c0-10.007-0.352-18.715-1.055-26.121l-0.035-0.387
		c0-0.375,0.363-0.585,1.09-0.633c0.515-0.023,2.554-0.199,6.117-0.527C141.534,0.118,143.573,0,145.143,0
		c0.445,0,0.668,0.387,0.668,1.16c0,0.914-0.059,2.122-0.176,3.621c-0.141,1.852-0.223,3.071-0.246,3.656
		c-0.118,2.32-0.176,5.484-0.176,9.492c0,0.727,0.188,1.09,0.563,1.09c0.188,0,0.363-0.093,0.527-0.281
		c2.109-2.25,4.875-3.375,8.297-3.375c5.133,0,9.141,1.746,12.023,5.238C169.295,23.836,170.631,28.09,170.631,33.363z
		 M157.905,32.977c0-1.945-0.598-3.591-1.793-4.939c-1.195-1.348-2.754-2.021-4.676-2.021c-1.969,0-3.521,0.674-4.658,2.021
		c-1.137,1.348-1.705,3.018-1.705,5.01c0,2.063,0.55,3.727,1.652,4.992c1.172,1.336,2.765,2.004,4.781,2.004
		c1.992,0,3.574-0.691,4.746-2.074C157.354,36.68,157.905,35.016,157.905,32.977z"/>
	<path fill="#FFFFFF" d="M207.124,31.465c0,2.368-0.762,3.715-2.285,4.043c-0.258,0.047-2.684,0.305-7.277,0.773
		c-2.766,0.305-6.891,0.668-12.375,1.09c0.328,1.524,1.324,2.684,2.988,3.48c1.359,0.656,2.906,0.984,4.641,0.984
		c2.086,0,4.184-0.563,6.293-1.688c0.891-0.563,1.781-1.125,2.672-1.688c0.492,0.234,1.318,1.43,2.479,3.586
		c1.16,2.157,1.74,3.528,1.74,4.113c0,0.164-0.176,0.434-0.527,0.809c-2.86,3.071-7.301,4.605-13.324,4.605
		c-5.578,0-10.078-1.629-13.5-4.887c-3.516-3.305-5.273-7.722-5.273-13.254c0-5.391,1.57-9.809,4.711-13.254
		c3.234-3.563,7.523-5.344,12.867-5.344c4.5,0,8.32,1.641,11.461,4.922C205.553,23.04,207.124,26.942,207.124,31.465z
		 M194.819,29.32c0-1.453-0.516-2.73-1.547-3.832c-1.032-1.102-2.262-1.652-3.691-1.652c-1.477,0-2.695,0.621-3.656,1.863
		c-0.891,1.148-1.336,2.496-1.336,4.043c0,0.633,0.328,0.949,0.984,0.949c1.734,0,4.43-0.269,8.086-0.809
		C194.432,29.766,194.819,29.579,194.819,29.32z"/>
	<path fill="#FFFFFF" d="M231.557,22.113c0,0.234-0.176,0.551-0.527,0.949c-0.656-0.164-1.313-0.246-1.969-0.246
		c-1.383,0-2.543,0.305-3.48,0.914c-1.125,0.703-1.688,1.7-1.688,2.988c0,0.821,0.598,1.863,1.793,3.129
		c1.805,1.898,2.918,3.176,3.34,3.832c1.195,1.781,1.793,3.691,1.793,5.73c0,1.195-0.234,2.461-0.703,3.797
		c-0.539,1.477-1.219,2.555-2.039,3.234c-1.734,1.5-3.762,2.766-6.082,3.797c-2.508,1.078-4.816,1.617-6.926,1.617
		c-0.469,0-1.518-1.271-3.146-3.814s-2.443-4.096-2.443-4.658c0-0.211,0.129-0.339,0.387-0.387c1.641-0.304,3.293-0.609,4.957-0.914
		c2.063-0.656,3.094-1.734,3.094-3.234c0-1.031-0.598-2.227-1.793-3.586c-2.133-2.367-3.246-3.621-3.34-3.762
		c-1.195-1.688-1.793-3.468-1.793-5.344c0-3.516,1.781-6.504,5.344-8.965c3.188-2.18,6.598-3.27,10.23-3.27
		c0.375,0,1.301,1.26,2.777,3.779C230.819,20.221,231.557,21.691,231.557,22.113z"/>
	<path fill="#FFFFFF" d="M260.139,40.254c0,0.703-0.088,1.77-0.264,3.199c-0.176,1.43-0.264,2.479-0.264,3.146
		s-0.07,1.096-0.211,1.283c-0.141,0.188-0.527,0.457-1.16,0.809c-3.023,1.665-6.375,2.496-10.055,2.496
		c-6.773,0-10.16-2.589-10.16-7.77c0-1.547,0.059-3.873,0.176-6.979c0.117-3.105,0.176-5.432,0.176-6.979
		c0-1.031-0.598-1.547-1.793-1.547c-0.094,0-0.246,0-0.457,0c-0.211,0.023-0.363,0.035-0.457,0.035
		c-0.891,0-1.336-0.316-1.336-0.949c0-0.375,0.029-0.949,0.088-1.723s0.088-1.348,0.088-1.723c0-0.492-0.029-1.242-0.088-2.25
		c-0.059-1.007-0.088-1.758-0.088-2.25c0-0.469,0.75-0.726,2.25-0.773c0.844-0.023,1.301-0.258,1.371-0.703
		c0.141-0.891,0.188-2.297,0.141-4.219c-0.094-3.023-0.141-4.465-0.141-4.324c0-2.719,0.258-4.078,0.773-4.078
		c0.633,0,1.535,0.141,2.707,0.422c1.336,0.305,2.262,0.48,2.777,0.527c1.195,0.164,3,0.387,5.414,0.668
		c0.586,0.047,0.879,0.246,0.879,0.598c0,0.938-0.076,2.355-0.229,4.254s-0.229,3.328-0.229,4.289c0,1.148,0.34,1.723,1.02,1.723
		c0.82,0,2.063-0.035,3.727-0.105s2.918-0.105,3.762-0.105c0.516,0,0.773,0.176,0.773,0.527c0,0.54-0.059,1.348-0.176,2.426
		c-0.117,1.078-0.176,1.887-0.176,2.426c0,0.563,0.012,1.383,0.035,2.461c0.023,1.078,0.035,1.898,0.035,2.461
		c0,0.492-0.34,0.738-1.02,0.738c-0.469,0-1.254-0.018-2.355-0.053s-1.887-0.053-2.355-0.053h-2.637
		c-0.352,0-0.527,0.516-0.527,1.547c0,0.563,0,1.395,0,2.496c0.023,1.125,0.035,1.957,0.035,2.496c0,1.969,0.223,3.328,0.668,4.078
		c0.633,1.008,1.875,1.512,3.727,1.512c0.586,0,1.424-0.135,2.514-0.404c1.09-0.269,1.857-0.404,2.303-0.404
		C259.893,39.48,260.139,39.739,260.139,40.254z"/>
	<path fill="#FFFFFF" d="M323.139,42.609c0,0.375-0.246,0.867-0.738,1.477c-4.313,5.133-10.043,7.699-17.191,7.699
		c-7.313,0-13.242-2.496-17.789-7.488c-4.43-4.828-6.645-10.921-6.645-18.281c0-7.125,2.168-13.171,6.504-18.141
		c4.523-5.203,10.277-7.805,17.262-7.805c7.594,0,13.547,2.333,17.859,6.996c0.469,0.516,0.703,0.973,0.703,1.371
		c0,0.445-0.814,2.098-2.443,4.957c-1.629,2.86-2.654,4.465-3.076,4.816c-0.188,0.188-0.422,0.281-0.703,0.281
		c-0.117,0-0.703-0.469-1.758-1.406c-1.266-1.125-2.508-2.004-3.727-2.637c-1.852-0.937-3.773-1.406-5.766-1.406
		c-3.445,0-6.199,1.289-8.262,3.867c-1.898,2.391-2.848,5.344-2.848,8.859c0,3.563,0.949,6.551,2.848,8.965
		c2.063,2.625,4.816,3.938,8.262,3.938c2.039,0,3.973-0.445,5.801-1.336c1.195-0.585,2.414-1.406,3.656-2.461
		c1.031-0.891,1.605-1.336,1.723-1.336c0.234,0,0.469,0.129,0.703,0.387c0.375,0.422,1.395,1.887,3.059,4.395
		C322.284,40.922,323.139,42.352,323.139,42.609z"/>
	<path fill="#FFFFFF" d="M369.053,20.039c0,5.672-1.488,10.266-4.465,13.781c-3.188,3.727-7.582,5.59-13.184,5.59
		c-0.938,0-2.35-0.053-4.236-0.158s-3.299-0.158-4.236-0.158c-1.008,0-1.512,0.434-1.512,1.301c0,1.078,0.105,2.684,0.316,4.816
		c0.211,2.133,0.316,3.727,0.316,4.781c0,0.54-0.246,0.809-0.738,0.809c-1.43,0-3.574-0.041-6.434-0.123
		c-2.859-0.083-5.004-0.123-6.434-0.123c-0.68,0-1.02-0.339-1.02-1.02c0-2.602,0.041-6.509,0.123-11.725
		c0.082-5.215,0.123-9.123,0.123-11.725c0-7.359-0.316-15.094-0.949-23.203l-0.035-0.492c-0.047-0.445,0.305-0.715,1.055-0.809
		c1.828-0.234,5.859-0.352,12.094-0.352c3.68,0,7.207,0.047,10.582,0.141c5.555,0.164,10.031,1.911,13.43,5.238
		C367.319,10.032,369.053,14.508,369.053,20.039z M355.026,20.602c0-5.461-2.66-8.191-7.98-8.191c-3.75,0-5.719,0.211-5.906,0.633
		c-0.164,0.305-0.246,3.012-0.246,8.121c0,0.727,0.029,1.799,0.088,3.217c0.059,1.418,0.088,2.491,0.088,3.217
		c0,0.469,2.109,0.703,6.328,0.703C352.483,28.301,355.026,25.734,355.026,20.602z"/>
	<path fill="#FFFFFF" d="M415.846,33.293c0,5.977-0.715,10.055-2.145,12.234c-2.625,3.985-9.176,5.977-19.652,5.977
		c-4.734,0-8.379-0.364-10.934-1.09c-4.078-1.172-6.727-3.41-7.945-6.715c-0.609-1.617-0.914-4.5-0.914-8.648
		c0-0.961,0.035-2.391,0.105-4.289s0.105-3.316,0.105-4.254c0-2.719-0.129-6.797-0.387-12.234
		c-0.258-5.437-0.387-9.504-0.387-12.199c0-0.563,0.246-0.844,0.738-0.844c1.43,0,3.592,0.059,6.486,0.176
		c2.895,0.118,5.057,0.176,6.486,0.176c0.586,0,0.879,0.258,0.879,0.773c0,3.094-0.1,7.729-0.299,13.904
		c-0.199,6.176-0.299,10.811-0.299,13.904c0,3.68,0.387,6.165,1.16,7.453c1.031,1.758,3.188,2.637,6.469,2.637
		c4.805,0,7.207-2.332,7.207-6.996c0-3.398-0.082-8.496-0.246-15.293c-0.164-6.797-0.246-11.895-0.246-15.293
		c0-0.726,0.293-1.09,0.879-1.09c1.383,0,3.469-0.058,6.258-0.176c2.789-0.117,4.875-0.176,6.258-0.176
		c0.68,0,1.02,0.281,1.02,0.844c0,2.695-0.111,6.762-0.334,12.199c-0.223,5.438-0.334,9.516-0.334,12.234
		c0,0.75,0.012,1.881,0.035,3.393S415.846,32.543,415.846,33.293z"/>
</g>
</svg>
